<svg xmlns="http://www.w3.org/2000/svg" viewBox="0 0 32 32"><g><circle fill="#e53935" cx="16" cy="16" r="16"/><path fill="#fff" d="M23.5 10.5c-1.1-1.1-2.6-1.7-4.2-1.7-3.3 0-6 2.7-6 6 0 1 .3 2 .8 2.8l-2.1 2.1c-.2.2-.2.5 0 .7.1.1.2.1.3.1s.3 0 .4-.1l2.1-2.1c.8.5 1.8.8 2.8.8 3.3 0 6-2.7 6-6 0-1.6-.6-3.1-1.7-4.2zm-4.2 8.2c-1.1 0-2.1-.4-2.8-1.1l.7-.7c.5.5 1.2.8 2.1.8 1.7 0 3-1.3 3-3 0-.8-.3-1.6-.8-2.1l.7-.7c.7.7 1.1 1.7 1.1 2.8 0 2.2-1.8 4-4 4zm-2.1-2.1c-.5-.5-.8-1.2-.8-2.1 0-1.7 1.3-3 3-3 .8 0 1.6.3 2.1.8l-.7.7c-.5-.5-1.2-.8-2.1-.8-1.7 0-3 1.3-3 3 0 .8.3 1.6.8 2.1l-.7.7zm2.1-2.1c.5.5 1.2.8 2.1.8 1.7 0 3-1.3 3-3 0-.8-.3-1.6-.8-2.1l.7-.7c.7.7 1.1 1.7 1.1 2.8 0 2.2-1.8 4-4 4z"/></g></svg>
